<svg id="Flat" height="512" viewBox="0 0 512 512" width="512" xmlns="http://www.w3.org/2000/svg"><circle cx="88" cy="360" fill="#932627" r="32"/><g fill="#c43333"><path d="m88 288h128v136h-128z"/><path d="m352 368h96v48h-96z"/><path d="m225.184 328h-131.551a32 32 0 0 1 -31.906-29.546l-9.352-121.582a63.982 63.982 0 0 1 49.985-67.4 228.047 228.047 0 0 1 99.28 0 63.982 63.982 0 0 1 49.985 67.4l-10.489 136.355a16 16 0 0 1 -15.952 14.773z"/></g><path d="m152 264a16 16 0 0 1 16 16v144a0 0 0 0 1 0 0h-32a0 0 0 0 1 0 0v-144a16 16 0 0 1 16-16z" fill="#932627"/><path d="m66.119 166.04 29.881 9.96v152h-10.667a32 32 0 0 1 -29.533-19.692l-29.333-70.4a32 32 0 0 1 -2.467-12.308v-29.2a32 32 0 0 1 42.119-30.36z" fill="#a52b2b"/><path d="m88 328h128v64h-128z" fill="#e74444"/><path d="m344 304h112v80h-112z" fill="#e74444"/><path d="m329.231 297.846 30.769-73.846h-42.367a32 32 0 0 1 -31.906-29.546l-3.68-47.845a32 32 0 0 1 23.762-33.4l69.953-18.409a64 64 0 0 1 76.338 39.767l33.4 90.661a32 32 0 0 1 1.842 13.96l-6.024 66.261a16 16 0 0 1 -15.929 14.551h-121.389a16 16 0 0 1 -14.769-22.154z" fill="#c43333"/><path d="m432 320h-48v-32l-47.445-59.306a32 32 0 0 1 .692-40.815l9.311-10.863a32 32 0 0 1 45.822-2.853l34.611 31.465a64 64 0 0 1 18.693 64.2z" fill="#a52b2b"/><path d="m120 88h64a32 32 0 0 1 32 32v64a48 48 0 0 1 -48 48h-32a48 48 0 0 1 -48-48v-64a32 32 0 0 1 32-32z" fill="#e74444"/></svg>